<?xml version="1.0" encoding="UTF-8"?>
<svg width="40px" height="40px" viewBox="0 0 40 40" version="1.1" xmlns="http://www.w3.org/2000/svg" xmlns:xlink="http://www.w3.org/1999/xlink">
    <title>logo</title>
    <g id="中台" stroke="none" stroke-width="1" fill="none" fill-rule="evenodd">
        <g id="首页" transform="translate(-8.000000, -28.000000)">
            <g id="logo" transform="translate(8.000000, 28.000000)">
                <rect id="矩形" fill="#D8D8D8" opacity="0" x="0" y="0" width="40" height="40"></rect>
                <g id="cyber-icon" fill-rule="nonzero">
                    <rect id="矩形" fill="#FFFFFF" opacity="0" x="0" y="0" width="39.8765432" height="39.8765432"></rect>
                    <path d="M27.7053498,15.708642 L33.6954733,15.708642 C31.6076593,9.07833496 24.9942574,4.96329596 18.1237083,6.01946525 C11.2531592,7.07563454 6.1810604,12.9870172 6.1810604,19.9382716 C6.1810604,26.889526 11.2531592,32.8009087 18.1237083,33.857078 C24.9942574,34.9132473 31.6076593,30.7982082 33.6954733,24.1679012 L27.7053498,24.1679012 C25.7856797,27.5453881 21.832163,29.20652 18.076248,28.2137191 C14.3203331,27.2209182 11.7040262,23.8231849 11.7040262,19.9382716 C11.7040262,16.0533584 14.3203331,12.6556251 18.076248,11.6628241 C21.832163,10.6700232 25.7856797,12.3311551 27.7053498,15.708642 L27.7053498,15.708642 Z" id="路径" fill="#333333"></path>
                    <path d="M27.7004115,24.1761317 C26.178276,26.8498232 23.3383374,28.5009522 20.2617284,28.5009522 C17.1851194,28.5009522 14.3451807,26.8498232 12.8230453,24.1761317 L6.8345679,24.1761317 C8.68449933,30.0350423 14.1193465,34.0183354 20.2633745,34.0183354 C26.4074025,34.0183354 31.8422496,30.0350423 33.6921811,24.1761317 L27.7004115,24.1761317 Z" id="路径" fill="#22AC35"></path>
                    <circle id="椭圆形" fill="#22AC35" cx="31.0123457" cy="19.9802469" r="2.44444444"></circle>
                </g>
            </g>
        </g>
    </g>
</svg>