<svg width="72" height="72" viewBox="0 0 72 72" fill="none" xmlns="http://www.w3.org/2000/svg">
<path d="M54.9677 25.7881H69.4301C66.9906 18.041 61.8584 11.4231 54.9623 7.13221C48.0662 2.84127 39.8618 1.16076 31.834 2.39482C23.8062 3.62889 16.4854 7.69599 11.1965 13.8601C5.90756 20.0241 3 27.8779 3 36C3 44.1221 5.90756 51.9759 11.1965 58.1399C16.4854 64.304 23.8062 68.3711 31.834 69.6052C39.8618 70.8392 48.0662 69.1587 54.9623 64.8678C61.8584 60.5769 66.9906 53.959 69.4301 46.2119H54.9677C52.7138 50.1774 49.2113 53.2859 45.0061 55.0528C40.8009 56.8196 36.1293 57.1457 31.7194 55.98C27.3096 54.8144 23.4093 52.2225 20.6264 48.6085C17.8435 44.9945 16.3345 40.5613 16.3345 36C16.3345 31.4387 17.8435 27.0055 20.6264 23.3915C23.4093 19.7775 27.3096 17.1856 31.7194 16.02C36.1293 14.8543 40.8009 15.1804 45.0061 16.9472C49.2113 18.7141 52.7138 21.8226 54.9677 25.7881Z" fill="#333333"/>
<path d="M54.9556 46.2305C53.1504 49.4015 50.5377 52.0381 47.3832 53.8721C44.2287 55.7061 40.6448 56.6722 36.9959 56.6722C33.347 56.6722 29.7631 55.7061 26.6086 53.8721C23.4541 52.0381 20.8414 49.4015 19.0361 46.2305H4.5777C6.75413 53.1234 11.0708 59.1434 16.9009 63.4165C22.7311 67.6895 29.7714 69.9932 36.9999 69.9932C44.2283 69.9932 51.2686 67.6895 57.0988 63.4165C62.9289 59.1434 67.2456 53.1234 69.422 46.2305H54.9556Z" fill="#22AC35"/>
<path d="M62.9521 42.0087C66.2116 42.0087 68.8539 39.3664 68.8539 36.1069C68.8539 32.8474 66.2116 30.2051 62.9521 30.2051C59.6926 30.2051 57.0503 32.8474 57.0503 36.1069C57.0503 39.3664 59.6926 42.0087 62.9521 42.0087Z" fill="#22AC35"/>
</svg>
