<?xml version="1.0" encoding="UTF-8"?>
<svg width="58px" height="50px" viewBox="0 0 58 50" version="1.1" xmlns="http://www.w3.org/2000/svg" xmlns:xlink="http://www.w3.org/1999/xlink">
    <!-- Generator: Sketch 52.3 (67297) - http://www.bohemiancoding.com/sketch -->
    <title>贴</title>
    <desc>Created with Sketch.</desc>
    <defs>
        <polygon id="path-1" points="0.322908696 0.327631579 42.5469087 0.327631579 42.5469087 23.9778517 0.322908696 23.9778517"></polygon>
        <polygon id="path-3" points="0.322950725 0.378684211 42.5469507 0.378684211 42.5469507 28.9473684 0.322950725 28.9473684"></polygon>
    </defs>
    <g id="组件" stroke="none" stroke-width="1" fill="none" fill-rule="evenodd">
        <g id="吐槽-copy" transform="translate(-12.000000, 0.000000)">
            <g id="贴" transform="translate(12.000000, 0.000000)">
                <g id="分组">
                    <g transform="translate(7.565217, 0.110965)">
                        <mask id="mask-2" fill="white">
                            <use xlink:href="#path-1"></use>
                        </mask>
                        <g id="Clip-2"></g>
                        <path d="M35.5095754,20.9928947 L8.29832899,21.4771053 C5.20205362,21.4771053 0.322908696,25.6411404 0.322908696,22.4455263 L3.60705362,10.8244737 C4.54514058,7.91921053 7.44135797,4.0345614 9.34401014,2.95824561 C12.1595319,1.36482456 15.0431406,0.779736842 18.2310391,0.530175439 C22.0073435,0.234561404 25.8349232,0.180175439 29.5502855,0.937631579 C33.5316913,1.74947368 37.1474449,4.56438596 39.3056333,8.12447368 C41.9677493,12.5165789 41.8076188,17.9731579 42.5469087,22.9297368 C42.5469087,26.1257895 38.6058507,20.9928947 35.5095754,20.9928947" id="Fill-1" fill="#005ED4" mask="url(#mask-2)"></path>
                    </g>
                    <g transform="translate(7.565217, 20.725000)">
                        <mask id="mask-4" fill="white">
                            <use xlink:href="#path-3"></use>
                        </mask>
                        <g id="Clip-4"></g>
                        <path d="M42.5469507,14.9054386 C42.5469507,12.1975439 42.5032406,6.82342105 40.2265304,4.73657895 C36.4325739,1.25938596 28.9539362,0.378684211 21.6665304,0.378684211 C14.3791246,0.378684211 6.43690725,1.74359649 2.64295072,5.22122807 C0.36624058,7.30763158 0.322950725,12.1975439 0.322950725,14.9054386 C0.322950725,15.025614 0.332197101,15.1453509 0.33724058,15.2650877 C0.332197101,15.3874561 0.322950725,15.5085088 0.322950725,15.6313158 C0.322950725,22.9857018 9.77484928,28.9475439 21.4349507,28.9475439 C33.0946319,28.9475439 42.5469507,22.9857018 42.5469507,15.6313158 C42.5469507,15.5085088 42.5377043,15.3874561 42.5322406,15.2650877 C42.5377043,15.1453509 42.5469507,15.025614 42.5469507,14.9054386" id="Fill-3" fill="#FAF2E6" mask="url(#mask-4)"></path>
                    </g>
                    <path d="M29,13.8408772 C12.9835942,13.8408772 0,20.019386 0,27.6404386 C0,31.310614 3.01557971,34.6426316 7.92414493,37.1145614 C7.90186957,36.8636842 7.888,36.6114912 7.888,36.3562281 C7.888,36.2334211 7.89766667,36.1123684 7.90271014,35.99 C7.89766667,35.8702632 7.888,35.7509649 7.888,35.6303509 C7.888,32.9224561 7.93171014,28.0325439 10.208,25.9461404 C14.0019565,22.4685088 21.9445942,21.1040351 29.232,21.1040351 C36.5194058,21.1040351 43.9980435,21.9842982 47.792,25.4619298 C50.0682899,27.5483333 50.112,32.9224561 50.112,35.6303509 C50.112,35.7509649 50.1027536,35.8702632 50.0972899,35.99 C50.1027536,36.1123684 50.112,36.2334211 50.112,36.3562281 C50.112,36.6114912 50.0981304,36.8636842 50.0758551,37.1145614 C54.9844203,34.6426316 58,31.310614 58,27.6404386 C58,20.019386 45.0159855,13.8408772 29,13.8408772" id="Fill-5" fill="#0773FC"></path>
                    <path d="M20.8800841,32.4827193 C20.8800841,33.6862281 20.1529826,34.6621053 19.2560841,34.6621053 C18.3591855,34.6621053 17.6320841,33.6862281 17.6320841,32.4827193 C17.6320841,31.2796491 18.3591855,30.3037719 19.2560841,30.3037719 C20.1529826,30.3037719 20.8800841,31.2796491 20.8800841,32.4827193" id="Fill-7" fill="#1B2337"></path>
                    <path d="M40.367958,32.4827193 C40.367958,33.6862281 39.6412768,34.6621053 38.743958,34.6621053 C37.8470594,34.6621053 37.119958,33.6862281 37.119958,32.4827193 C37.119958,31.2796491 37.8470594,30.3037719 38.743958,30.3037719 C39.6412768,30.3037719 40.367958,31.2796491 40.367958,32.4827193" id="Fill-9" fill="#1B2337"></path>
                    <path d="M37.3351884,26.0545614 C38.1064203,25.1870175 39.4475652,25.2672807 40.1481884,26.1830702 C40.4276812,26.5479825 40.9173188,26.0308772 40.6403478,25.6690351 C39.7089855,24.4523684 37.8513043,24.4076316 36.843029,25.5409649 C36.5383188,25.8830702 37.0292174,26.3979825 37.3351884,26.0545614" id="Fill-11" fill="#1B2337"></path>
                    <path d="M17.8471464,25.5701316 C18.6183783,24.7030263 19.9599435,24.7832895 20.6601464,25.6986404 C20.9396391,26.0639912 21.4292768,25.546886 21.1527261,25.1850439 C20.2213638,23.9679386 18.3632623,23.9232018 17.354987,25.0565351 C17.0502768,25.3986404 17.5415957,25.9135526 17.8471464,25.5701316" id="Fill-13" fill="#1B2337"></path>
                    <path d="M31.0879159,35.6304386 C31.0879159,36.1650877 30.2570029,36.5988596 29.2319159,36.5988596 C28.2072493,36.5988596 27.3759159,36.1650877 27.3759159,35.6304386 C27.3759159,35.0953509 28.2072493,34.6620175 29.2319159,34.6620175 C30.2570029,34.6620175 31.0879159,35.0953509 31.0879159,35.6304386" id="Fill-15" fill="#1B2337"></path>
                    
                    
             
         
                    
                    <path d="M15.6085986,36.1816667 C15.2000768,36.5215789 14.8348449,36.9071053 14.5141638,37.3382456 C14.3410043,37.5698246 14.2968739,37.8821053 14.5141638,38.1084211 C14.6940478,38.2961404 15.0781928,38.342193 15.2521928,38.1084211 C15.5732942,37.6777193 15.9381058,37.2917544 16.3466275,36.9518421 C16.5672797,36.7685088 16.5302942,36.3733333 16.3466275,36.1816667 C16.1289174,35.9540351 15.829671,35.9974561 15.6085986,36.1816667" id="Fill-29" fill="#FFCCCA"></path>
                    <path d="M17.8584101,36.1238596 C17.308671,36.5361404 16.8530768,37.0418421 16.5160043,37.6563158 C16.1818739,38.2659649 17.0833957,38.8155263 17.4175261,38.2063158 C17.6625551,37.7598246 17.9836565,37.3659649 18.3854536,37.0646491 C18.6140913,36.8931579 18.7246275,36.5900877 18.5724826,36.3190351 C18.4405116,36.0835088 18.088729,35.9510526 17.8584101,36.1238596" id="Fill-31" fill="#FFCCCA"></path>
                    <path d="M19.6514087,36.2682018 C19.1104957,36.6822368 18.6561623,37.1629386 18.2715971,37.7379386 C18.1102058,37.9791667 18.2295681,38.3427632 18.4590464,38.483114 C18.7192058,38.641886 19.0113072,38.5296053 19.1731188,38.2875 C19.4479884,37.8765351 19.7909449,37.5054825 20.1784522,37.2089912 C20.4054087,37.0348684 20.5184667,36.7357456 20.3659014,36.4633772 C20.234771,36.2296053 19.8800464,36.0932018 19.6514087,36.2682018" id="Fill-33" fill="#FFCCCA"></path>
                    <path d="M21.2550246,36.4438158 C20.8536478,36.8139912 20.5144739,37.2569737 20.2526333,37.744693 C19.9239667,38.3569737 20.8254884,38.9069737 21.1541551,38.294693 C21.3764884,37.8806579 21.6526188,37.5284649 21.9930536,37.2144298 C22.2044594,37.0192544 22.1838652,36.6425 21.9930536,36.4438158 C21.783329,36.2245175 21.4668507,36.2486404 21.2550246,36.4438158" id="Fill-35" fill="#FFCCCA"></path>
                    <path d="M37.8806826,36.6656579 C37.4717406,37.0055702 37.106929,37.3915351 36.7862478,37.8222368 C36.6126681,38.0542544 36.568958,38.3665351 36.7862478,38.5928509 C36.9661319,38.7805702 37.3498565,38.8261842 37.5238565,38.5928509 C37.844958,38.1617105 38.2101899,37.7761842 38.6187116,37.4362719 C38.8393638,37.2525 38.8023783,36.8573246 38.6187116,36.6656579 C38.4010014,36.4380263 38.1017551,36.4814474 37.8806826,36.6656579" id="Fill-37" fill="#FFCCCA"></path>
                    <path d="M40.1302841,36.6078509 C39.5805449,37.0201316 39.1249507,37.5258333 38.7882986,38.140307 C38.4537478,38.7499561 39.3552696,39.2995175 39.6894,38.690307 C39.934429,38.2438158 40.2555304,37.8499561 40.6573275,37.5490789 C40.8859652,37.3771491 40.9969217,37.0740789 40.8447768,36.8034649 C40.7128058,36.5675 40.3606029,36.4350439 40.1302841,36.6078509" id="Fill-39" fill="#FFCCCA"></path>
                    <path d="M41.9234928,36.752193 C41.3825797,37.1662281 40.9282464,37.6473684 40.5436812,38.2223684 C40.3822899,38.4631579 40.5012319,38.827193 40.7307101,38.9675439 C40.9908696,39.1258772 41.2833913,39.0135965 41.4452029,38.7719298 C41.7200725,38.3609649 42.0626087,37.9894737 42.4505362,37.6929825 C42.6774928,37.5192982 42.7905507,37.2201754 42.6375652,36.9473684 C42.5068551,36.7140351 42.1521304,36.577193 41.9234928,36.752193" id="Fill-41" fill="#FFCCCA"></path>
                    <path d="M43.5271087,36.927807 C43.1257319,37.2984211 42.786558,37.7409649 42.5247174,38.2291228 C42.1960507,38.8409649 43.0975725,39.3909649 43.4262391,38.7786842 C43.6485725,38.3646491 43.9242826,38.0128947 44.265558,37.6984211 C44.4769638,37.5032456 44.4559493,37.1269298 44.265558,36.927807 C44.055413,36.7089474 43.7389348,36.7326316 43.5271087,36.927807" id="Fill-43" fill="#FFCCCA"></path>
                </g>
            </g>
        </g>
    </g>
</svg>